<svg xmlns="http://www.w3.org/2000/svg" viewBox="0 0 1280 720">
  <defs>
    <linearGradient id="s12-bg" x1="0" y1="0" x2="0.3" y2="1">
      <stop offset="0%" stop-color="#F0F4FA"/>
      <stop offset="100%" stop-color="#E2E8F0"/>
    </linearGradient>
    <filter id="s12-shadow" x="-4%" y="-4%" width="108%" height="112%">
      <feDropShadow dx="0" dy="2" stdDeviation="6" flood-color="#1E293B" flood-opacity="0.08"/>
    </filter>
    <filter id="s12-shadow-sm" x="-4%" y="-4%" width="108%" height="112%">
      <feDropShadow dx="0" dy="1" stdDeviation="3" flood-color="#1E293B" flood-opacity="0.06"/>
    </filter>
    <linearGradient id="s12-accent-grad" x1="0" y1="0" x2="1" y2="0">
      <stop offset="0%" stop-color="#1E40AF"/>
      <stop offset="100%" stop-color="#059669"/>
    </linearGradient>
  </defs>

  <!-- Background -->
  <rect width="1280" height="720" fill="url(#s12-bg)"/>

  <!-- Top accent bar -->
  <g data-decorative="true">
    <rect x="0" y="0" width="1280" height="4" fill="url(#s12-accent-grad)"/>
  </g>

  <!-- Part indicator -->
  <rect x="80" y="28" width="6" height="24" rx="3" fill="#1E40AF"/>
  <text x="98" y="46" font-family="Inter, system-ui, sans-serif" font-size="13" fill="#64748B">第三部分 | 数据架构与开放生态</text>

  <!-- Page title -->
  <text x="80" y="88" font-family="Source Serif Pro, Georgia, serif" font-size="28" font-weight="bold" fill="#1E293B">现代化 Web 前端</text>
  <text x="80" y="114" font-family="Inter, system-ui, sans-serif" font-size="15" fill="#64748B">14 个功能页面 — 深色工业主题 + 实时仪表盘</text>
  <rect x="80" y="126" width="72" height="3" rx="1.5" fill="#1E40AF"/>

  <!-- Metric badges in top right -->
  <rect x="820" y="30" width="130" height="50" rx="10" fill="#FFFFFF" filter="url(#s12-shadow-sm)" stroke="#D97706" stroke-width="1.5"/>
  <text x="885" y="54" text-anchor="middle" font-family="JetBrains Mono, monospace" font-size="20" font-weight="bold" fill="#D97706">14</text>
  <text x="885" y="72" text-anchor="middle" font-family="Inter, system-ui, sans-serif" font-size="12" fill="#64748B">功能页面</text>

  <rect x="965" y="30" width="130" height="50" rx="10" fill="#FFFFFF" filter="url(#s12-shadow-sm)" stroke="#1E40AF" stroke-width="1.5"/>
  <text x="1030" y="54" text-anchor="middle" font-family="JetBrains Mono, monospace" font-size="20" font-weight="bold" fill="#1E40AF">&lt;3s</text>
  <text x="1030" y="72" text-anchor="middle" font-family="Inter, system-ui, sans-serif" font-size="12" fill="#64748B">首屏加载</text>

  <!-- Tech stack bar -->
  <rect x="60" y="138" width="1160" height="34" rx="8" fill="#F8FAFC" filter="url(#s12-shadow-sm)" stroke="#E2E8F0" stroke-width="1"/>
  <text x="80" y="160" font-family="JetBrains Mono, monospace" font-size="13" fill="#1E40AF">Next.js 14</text>
  <text x="190" y="160" font-family="JetBrains Mono, monospace" font-size="13" fill="#1E40AF">React 18</text>
  <text x="290" y="160" font-family="JetBrains Mono, monospace" font-size="13" fill="#059669">shadcn/ui</text>
  <text x="400" y="160" font-family="JetBrains Mono, monospace" font-size="13" fill="#059669">Tailwind CSS</text>
  <text x="540" y="160" font-family="JetBrains Mono, monospace" font-size="13" fill="#D97706">ECharts</text>
  <text x="640" y="160" font-family="JetBrains Mono, monospace" font-size="13" fill="#D97706">@xyflow/react</text>
  <text x="800" y="160" font-family="Inter, system-ui, sans-serif" font-size="13" fill="#94A3B8">深色 MES 主题</text>
  <text x="940" y="160" font-family="JetBrains Mono, monospace" font-size="13" fill="#94A3B8">#141414 + #1677ff</text>
  <text x="1110" y="160" font-family="JetBrains Mono, monospace" font-size="12" fill="#94A3B8">JetBrains Mono</text>

  <!-- ===== MIXED GRID: 3 UI Mockup Cards (Row 1) ===== -->

  <!-- Card 1: Dashboard (large) -->
  <rect x="60" y="190" width="380" height="230" rx="10" fill="#1E293B" filter="url(#s12-shadow)"/>
  <!-- Title bar -->
  <rect x="60" y="190" width="380" height="32" rx="10" fill="#334155"/>
  <rect x="60" y="212" width="380" height="10" fill="#334155"/>
  <circle cx="78" cy="206" r="5" fill="#EF4444"/>
  <circle cx="94" cy="206" r="5" fill="#FBBF24"/>
  <circle cx="110" cy="206" r="5" fill="#059669"/>
  <text x="250" y="210" text-anchor="middle" font-family="Inter, system-ui, sans-serif" font-size="12" fill="#CBD5E1">Dashboard 主控制台</text>

  <!-- Mock metric cards inside -->
  <rect x="76" y="232" width="82" height="38" rx="4" fill="#0F172A"/>
  <text x="117" y="252" text-anchor="middle" font-family="JetBrains Mono, monospace" font-size="13" fill="#059669">37.0°C</text>
  <text x="117" y="264" text-anchor="middle" font-family="Inter, system-ui, sans-serif" font-size="12" fill="#64748B">温度</text>
  <rect x="166" y="232" width="82" height="38" rx="4" fill="#0F172A"/>
  <text x="207" y="252" text-anchor="middle" font-family="JetBrains Mono, monospace" font-size="13" fill="#1E40AF">7.02</text>
  <text x="207" y="264" text-anchor="middle" font-family="Inter, system-ui, sans-serif" font-size="12" fill="#64748B">pH</text>
  <rect x="256" y="232" width="82" height="38" rx="4" fill="#0F172A"/>
  <text x="297" y="252" text-anchor="middle" font-family="JetBrains Mono, monospace" font-size="13" fill="#D97706">42%</text>
  <text x="297" y="264" text-anchor="middle" font-family="Inter, system-ui, sans-serif" font-size="12" fill="#64748B">DO</text>
  <rect x="346" y="232" width="82" height="38" rx="4" fill="#0F172A"/>
  <text x="387" y="252" text-anchor="middle" font-family="JetBrains Mono, monospace" font-size="13" fill="#7C3AED">300</text>
  <text x="387" y="264" text-anchor="middle" font-family="Inter, system-ui, sans-serif" font-size="12" fill="#64748B">RPM</text>

  <!-- Mock chart area -->
  <rect x="76" y="278" width="352" height="90" rx="4" fill="#0F172A"/>
  <polyline points="88,348 128,338 168,342 208,325 248,330 288,315 328,320 368,305 408,310" fill="none" stroke="#3B82F6" stroke-width="2"/>
  <polyline points="88,352 128,348 168,350 208,346 248,342 288,338 328,336 368,332 408,328" fill="none" stroke="#059669" stroke-width="1.5"/>

  <!-- Tank selector -->
  <rect x="76" y="378" width="36" height="22" rx="4" fill="#1E40AF" opacity="0.3"/>
  <text x="94" y="394" text-anchor="middle" font-family="JetBrains Mono, monospace" font-size="12" fill="#3B82F6">R1</text>
  <rect x="118" y="378" width="36" height="22" rx="4" fill="#1E293B"/>
  <text x="136" y="394" text-anchor="middle" font-family="JetBrains Mono, monospace" font-size="12" fill="#64748B">R2</text>
  <rect x="160" y="378" width="36" height="22" rx="4" fill="#1E293B"/>
  <text x="178" y="394" text-anchor="middle" font-family="JetBrains Mono, monospace" font-size="12" fill="#64748B">R3</text>
  <text x="216" y="394" font-family="Inter, system-ui, sans-serif" font-size="12" fill="#64748B">8 罐切换</text>

  <!-- Card 2: DAG Editor -->
  <rect x="460" y="190" width="380" height="230" rx="10" fill="#1E293B" filter="url(#s12-shadow)"/>
  <rect x="460" y="190" width="380" height="32" rx="10" fill="#334155"/>
  <rect x="460" y="212" width="380" height="10" fill="#334155"/>
  <circle cx="478" cy="206" r="5" fill="#EF4444"/>
  <circle cx="494" cy="206" r="5" fill="#FBBF24"/>
  <circle cx="510" cy="206" r="5" fill="#059669"/>
  <text x="650" y="210" text-anchor="middle" font-family="Inter, system-ui, sans-serif" font-size="12" fill="#CBD5E1">配方 DAG 编辑器</text>

  <!-- Mock DAG nodes -->
  <rect x="482" y="240" width="86" height="32" rx="6" fill="#0F172A" stroke="#7C3AED" stroke-width="1"/>
  <text x="525" y="261" text-anchor="middle" font-family="Inter, system-ui, sans-serif" font-size="12" fill="#7C3AED">准备</text>
  <line x1="568" y1="256" x2="596" y2="256" stroke="#475569" stroke-width="1.5"/>
  <rect x="596" y="240" width="86" height="32" rx="6" fill="#0F172A" stroke="#7C3AED" stroke-width="1"/>
  <text x="639" y="261" text-anchor="middle" font-family="Inter, system-ui, sans-serif" font-size="12" fill="#7C3AED">SIP 灭菌</text>
  <line x1="682" y1="256" x2="710" y2="256" stroke="#475569" stroke-width="1.5"/>
  <rect x="710" y="240" width="86" height="32" rx="6" fill="#0F172A" stroke="#7C3AED" stroke-width="1"/>
  <text x="753" y="261" text-anchor="middle" font-family="Inter, system-ui, sans-serif" font-size="12" fill="#7C3AED">升温</text>

  <!-- Branch down -->
  <line x1="639" y1="272" x2="639" y2="300" stroke="#475569" stroke-width="1.5"/>
  <rect x="596" y="300" width="86" height="32" rx="6" fill="#0F172A" stroke="#D97706" stroke-width="1"/>
  <text x="639" y="321" text-anchor="middle" font-family="Inter, system-ui, sans-serif" font-size="12" fill="#D97706">Batch</text>
  <line x1="682" y1="316" x2="710" y2="316" stroke="#475569" stroke-width="1.5"/>
  <rect x="710" y="300" width="86" height="32" rx="6" fill="#0F172A" stroke="#059669" stroke-width="1"/>
  <text x="753" y="321" text-anchor="middle" font-family="Inter, system-ui, sans-serif" font-size="12" fill="#059669">Fed-batch</text>

  <!-- Condition label -->
  <rect x="482" y="348" width="344" height="24" rx="4" fill="#0F172A"/>
  <text x="492" y="365" font-family="JetBrains Mono, monospace" font-size="12" fill="#64748B">condition: DO_spike == true ? Fed-batch : Continue</text>

  <text x="482" y="402" font-family="Inter, system-ui, sans-serif" font-size="13" fill="#94A3B8">@xyflow/react 可视化图编辑 + 条件分支</text>

  <!-- Card 3: Data Explorer / SPC -->
  <rect x="860" y="190" width="360" height="230" rx="10" fill="#1E293B" filter="url(#s12-shadow)"/>
  <rect x="860" y="190" width="360" height="32" rx="10" fill="#334155"/>
  <rect x="860" y="212" width="360" height="10" fill="#334155"/>
  <circle cx="878" cy="206" r="5" fill="#EF4444"/>
  <circle cx="894" cy="206" r="5" fill="#FBBF24"/>
  <circle cx="910" cy="206" r="5" fill="#059669"/>
  <text x="1040" y="210" text-anchor="middle" font-family="Inter, system-ui, sans-serif" font-size="12" fill="#CBD5E1">数据浏览器 / SPC 控制图</text>

  <!-- Mock SPC chart -->
  <rect x="878" y="235" width="324" height="125" rx="4" fill="#0F172A"/>
  <!-- UCL -->
  <line x1="892" y1="262" x2="1186" y2="262" stroke="#EF4444" stroke-width="0.8" stroke-dasharray="5,3"/>
  <text x="1192" y="266" font-family="Inter, system-ui, sans-serif" font-size="12" fill="#EF4444">UCL</text>
  <!-- CL -->
  <line x1="892" y1="296" x2="1186" y2="296" stroke="#059669" stroke-width="0.8"/>
  <text x="1192" y="300" font-family="Inter, system-ui, sans-serif" font-size="12" fill="#059669">CL</text>
  <!-- LCL -->
  <line x1="892" y1="330" x2="1186" y2="330" stroke="#EF4444" stroke-width="0.8" stroke-dasharray="5,3"/>
  <text x="1192" y="334" font-family="Inter, system-ui, sans-serif" font-size="12" fill="#EF4444">LCL</text>
  <!-- Data line -->
  <polyline points="900,298 932,288 964,292 996,286 1028,300 1060,296 1092,290 1124,294 1156,288 1180,298" fill="none" stroke="#3B82F6" stroke-width="2"/>

  <!-- SPC metrics -->
  <text x="882" y="380" font-family="JetBrains Mono, monospace" font-size="13" fill="#059669">Cp: 1.45</text>
  <text x="970" y="380" font-family="JetBrains Mono, monospace" font-size="13" fill="#059669">Cpk: 1.32</text>
  <text x="1072" y="380" font-family="Inter, system-ui, sans-serif" font-size="13" fill="#CBD5E1">X-bar/R + EWMA</text>
  <text x="882" y="400" font-family="Inter, system-ui, sans-serif" font-size="12" fill="#64748B">Western Electric 规则自动检测</text>

  <!-- ===== ROW 2: Feature categories (5 cards) ===== -->
  <text x="80" y="448" font-family="Source Serif Pro, Georgia, serif" font-size="16" font-weight="bold" fill="#1E293B">14 页功能覆盖</text>

  <!-- Category 1: Control -->
  <rect x="60" y="462" width="220" height="72" rx="10" fill="#F8FAFC" filter="url(#s12-shadow-sm)" stroke="#1E40AF" stroke-width="1.5"/>
  <text x="80" y="486" font-family="Inter, system-ui, sans-serif" font-size="14" font-weight="600" fill="#1E40AF">控制与监测</text>
  <text x="80" y="506" font-family="Inter, system-ui, sans-serif" font-size="13" fill="#64748B">Dashboard</text>
  <text x="80" y="522" font-family="Inter, system-ui, sans-serif" font-size="13" fill="#64748B">手动控制 / PLC 配置</text>

  <!-- Category 2: Recipe -->
  <rect x="296" y="462" width="220" height="72" rx="10" fill="#F8FAFC" filter="url(#s12-shadow-sm)" stroke="#7C3AED" stroke-width="1.5"/>
  <text x="316" y="486" font-family="Inter, system-ui, sans-serif" font-size="14" font-weight="600" fill="#7C3AED">配方与批次</text>
  <text x="316" y="506" font-family="Inter, system-ui, sans-serif" font-size="13" fill="#64748B">DAG 编辑器 / 批次管理</text>
  <text x="316" y="522" font-family="Inter, system-ui, sans-serif" font-size="13" fill="#64748B">配方审批流</text>

  <!-- Category 3: Analysis -->
  <rect x="532" y="462" width="220" height="72" rx="10" fill="#F8FAFC" filter="url(#s12-shadow-sm)" stroke="#059669" stroke-width="1.5"/>
  <text x="552" y="486" font-family="Inter, system-ui, sans-serif" font-size="14" font-weight="600" fill="#059669">数据分析</text>
  <text x="552" y="506" font-family="Inter, system-ui, sans-serif" font-size="13" fill="#64748B">数据浏览器 / 批次对比</text>
  <text x="552" y="522" font-family="Inter, system-ui, sans-serif" font-size="13" fill="#64748B">KPI/OEE / SPC</text>

  <!-- Category 4: Equipment -->
  <rect x="768" y="462" width="220" height="72" rx="10" fill="#F8FAFC" filter="url(#s12-shadow-sm)" stroke="#D97706" stroke-width="1.5"/>
  <text x="788" y="486" font-family="Inter, system-ui, sans-serif" font-size="14" font-weight="600" fill="#D97706">设备管理</text>
  <text x="788" y="506" font-family="Inter, system-ui, sans-serif" font-size="13" fill="#64748B">传感器校准向导</text>
  <text x="788" y="522" font-family="Inter, system-ui, sans-serif" font-size="13" fill="#64748B">公式系数修改</text>

  <!-- Category 5: Safety -->
  <rect x="1004" y="462" width="216" height="72" rx="10" fill="#F8FAFC" filter="url(#s12-shadow-sm)" stroke="#DC2626" stroke-width="1.5"/>
  <text x="1024" y="486" font-family="Inter, system-ui, sans-serif" font-size="14" font-weight="600" fill="#DC2626">安全合规</text>
  <text x="1024" y="506" font-family="Inter, system-ui, sans-serif" font-size="13" fill="#64748B">审计日志 / 4 级权限</text>
  <text x="1024" y="522" font-family="Inter, system-ui, sans-serif" font-size="13" fill="#64748B">API 密钥管理</text>

  <!-- ===== UI Style showcase bar ===== -->
  <rect x="60" y="556" width="1160" height="44" rx="10" fill="#1E293B" filter="url(#s12-shadow-sm)" stroke="#334155" stroke-width="1"/>
  <!-- Color swatches -->
  <rect x="84" y="568" width="22" height="22" rx="4" fill="#141414" stroke="#64748B" stroke-width="0.8"/>
  <rect x="114" y="568" width="22" height="22" rx="4" fill="#1677FF"/>
  <rect x="144" y="568" width="22" height="22" rx="4" fill="#059669"/>
  <text x="182" y="584" font-family="Inter, system-ui, sans-serif" font-size="14" fill="#CBD5E1">深色 MES 主题</text>
  <text x="310" y="584" font-family="JetBrains Mono, monospace" font-size="14" fill="#94A3B8">#141414 + #1677ff</text>
  <text x="520" y="584" font-family="Inter, system-ui, sans-serif" font-size="14" fill="#CBD5E1">数值字体 JetBrains Mono</text>
  <!-- Status LED indicators -->
  <circle cx="740" cy="578" r="5" fill="#059669"/>
  <text x="754" y="584" font-family="Inter, system-ui, sans-serif" font-size="14" fill="#CBD5E1">在线</text>
  <circle cx="808" cy="578" r="5" fill="#D97706"/>
  <text x="822" y="584" font-family="Inter, system-ui, sans-serif" font-size="14" fill="#CBD5E1">告警</text>
  <circle cx="876" cy="578" r="5" fill="#DC2626"/>
  <text x="890" y="584" font-family="Inter, system-ui, sans-serif" font-size="14" fill="#CBD5E1">故障</text>
  <text x="950" y="584" font-family="Inter, system-ui, sans-serif" font-size="14" fill="#64748B">状态 LED 指示</text>

  <!-- Bottom descriptive note -->
  <text x="640" y="636" text-anchor="middle" font-family="Inter, system-ui, sans-serif" font-size="13" fill="#94A3B8">响应式布局 | 8 罐实时切换 | 深色主题减少视觉疲劳 | 工业级数据可视化</text>

  <!-- ===== FOOTER ===== -->
  <rect x="0" y="680" width="1280" height="40" rx="0" fill="#1E293B"/>
  <text x="80" y="705" font-family="Inter, system-ui, sans-serif" font-size="13" fill="#94A3B8">BIOCore 实验室发酵罐智能控制平台</text>
  <text x="640" y="705" text-anchor="middle" font-family="Source Serif Pro, Georgia, serif" font-size="13" fill="#CBD5E1">现代化 Web 前端</text>
  <text x="1200" y="705" text-anchor="end" font-family="JetBrains Mono, monospace" font-size="13" fill="#94A3B8">12 / 18</text>
</svg>